<svg width="21" height="20" viewBox="0 0 21 20" fill="none" xmlns="http://www.w3.org/2000/svg">
<path d="M10.3828 7.5H10.5C11.1771 7.5 11.763 7.7474 12.2578 8.24219C12.7526 8.73698 13 9.32292 13 10V10.1562L10.3828 7.5ZM6.78906 8.16406C6.47656 8.78906 6.32031 9.40104 6.32031 10C6.32031 11.1458 6.72396 12.1354 7.53125 12.9688C8.36458 13.776 9.35417 14.1797 10.5 14.1797C11.099 14.1797 11.7109 14.0234 12.3359 13.7109L11.0469 12.4219C10.8385 12.474 10.6562 12.5 10.5 12.5C9.82292 12.5 9.23698 12.2526 8.74219 11.7578C8.2474 11.263 8 10.6771 8 10C8 9.84375 8.02604 9.66146 8.07812 9.45312L6.78906 8.16406ZM2.17969 3.55469L3.23438 2.5L18 17.2656L16.9453 18.3203C16.8151 18.1901 16.3984 17.7865 15.6953 17.1094C15.0182 16.4323 14.4974 15.9115 14.1328 15.5469C13.013 16.0156 11.8021 16.25 10.5 16.25C8.44271 16.25 6.58073 15.6771 4.91406 14.5312C3.2474 13.3854 2.04948 11.875 1.32031 10C1.60677 9.32292 2.04948 8.58073 2.64844 7.77344C3.27344 6.9401 3.8724 6.30208 4.44531 5.85938C4.13281 5.54688 3.6901 5.10417 3.11719 4.53125C2.57031 3.95833 2.25781 3.63281 2.17969 3.55469ZM10.5 5.82031C9.97917 5.82031 9.47135 5.92448 8.97656 6.13281L7.17969 4.33594C8.19531 3.94531 9.30208 3.75 10.5 3.75C12.5573 3.75 14.4062 4.32292 16.0469 5.46875C17.7135 6.61458 18.9115 8.125 19.6406 10C19.0156 11.5365 18.0651 12.8516 16.7891 13.9453L14.3672 11.5234C14.5755 11.0286 14.6797 10.5208 14.6797 10C14.6797 8.85417 14.263 7.8776 13.4297 7.07031C12.6224 6.23698 11.6458 5.82031 10.5 5.82031Z" fill="white" fill-opacity="0.75"/>
</svg>
