<svg width="21" height="20" viewBox="0 0 21 20" fill="none" xmlns="http://www.w3.org/2000/svg">
<path d="M10.5 1.67969C11.6458 1.67969 12.7135 1.90104 13.7031 2.34375C14.7188 2.76042 15.6042 3.35938 16.3594 4.14062C17.1406 4.89583 17.7396 5.78125 18.1562 6.79688C18.599 7.78646 18.8203 8.85417 18.8203 10C18.8203 11.1458 18.599 12.2266 18.1562 13.2422C17.7396 14.2318 17.1406 15.1172 16.3594 15.8984C15.6042 16.6536 14.7188 17.2526 13.7031 17.6953C12.7135 18.112 11.6458 18.3203 10.5 18.3203C9.35417 18.3203 8.27344 18.112 7.25781 17.6953C6.26823 17.2526 5.38281 16.6536 4.60156 15.8984C3.84635 15.1172 3.2474 14.2318 2.80469 13.2422C2.38802 12.2266 2.17969 11.1458 2.17969 10C2.17969 8.85417 2.38802 7.78646 2.80469 6.79688C3.2474 5.78125 3.84635 4.89583 4.60156 4.14062C5.38281 3.35938 6.26823 2.76042 7.25781 2.34375C8.27344 1.90104 9.35417 1.67969 10.5 1.67969ZM14.3672 7.34375C14.3672 7.26562 14.3672 7.20052 14.3672 7.14844C14.3672 7.09635 14.3672 7.05729 14.3672 7.03125C14.3672 6.92708 14.3281 6.84896 14.25 6.79688C14.1979 6.74479 14.1328 6.71875 14.0547 6.71875C14.0026 6.69271 13.9635 6.67969 13.9375 6.67969C13.8333 6.67969 13.6771 6.71875 13.4688 6.79688C13.2865 6.84896 12.987 6.95312 12.5703 7.10938C12.1797 7.26562 11.5938 7.5 10.8125 7.8125C10.4219 7.99479 9.8099 8.26823 8.97656 8.63281C8.16927 8.97135 7.16667 9.40104 5.96875 9.92188C5.57812 10.0781 5.36979 10.2344 5.34375 10.3906C5.31771 10.5208 5.39583 10.625 5.57812 10.7031C5.76042 10.7552 5.98177 10.8333 6.24219 10.9375C6.45052 10.9896 6.67188 11.0547 6.90625 11.1328C7.16667 11.1849 7.375 11.224 7.53125 11.25C7.79167 11.25 8.09115 11.1328 8.42969 10.8984C10.7214 9.36198 11.8932 8.59375 11.9453 8.59375C12.0495 8.56771 12.1146 8.56771 12.1406 8.59375C12.1667 8.64583 12.1797 8.69792 12.1797 8.75C12.1536 8.77604 12.0625 8.86719 11.9062 9.02344C11.776 9.17969 11.5938 9.36198 11.3594 9.57031C11.151 9.77865 10.9297 9.98698 10.6953 10.1953C10.487 10.4036 10.3047 10.5859 10.1484 10.7422C9.99219 10.8724 9.90104 10.9505 9.875 10.9766C9.71875 11.1328 9.57552 11.2891 9.44531 11.4453C9.3151 11.5755 9.25 11.7057 9.25 11.8359C9.27604 11.9661 9.41927 12.1224 9.67969 12.3047C10.0443 12.5391 10.3568 12.7474 10.6172 12.9297C10.8776 13.112 11.1901 13.3203 11.5547 13.5547C11.7891 13.7109 11.9974 13.8672 12.1797 14.0234C12.388 14.1536 12.6094 14.2057 12.8438 14.1797C12.974 14.1797 13.0911 14.1146 13.1953 13.9844C13.2995 13.8542 13.3776 13.6328 13.4297 13.3203C13.5078 12.9557 13.5859 12.5 13.6641 11.9531C13.7682 11.4062 13.8594 10.8464 13.9375 10.2734C14.0417 9.67448 14.1328 9.11458 14.2109 8.59375C14.2891 8.07292 14.3411 7.65625 14.3672 7.34375Z" fill="white"/>
</svg>
