<svg width="441" height="432" viewBox="0 0 441 432" fill="none" xmlns="http://www.w3.org/2000/svg">
<g clip-path="url(#clip0_5_16471)">
<path d="M335.161 1.5C237.941 49.4446 140.72 97.3966 43.5 145.349C43.5294 154.307 43.5515 163.274 43.581 172.233C43.5515 172.247 43.5294 172.262 43.5 172.277C43.5294 182.239 43.5589 192.202 43.5957 202.164C43.5662 202.179 43.5294 202.194 43.5 202.208C43.5294 211.167 43.5515 220.133 43.581 229.092C43.5515 229.107 43.5294 229.122 43.5 229.136C43.6251 271.111 43.7576 313.092 43.8901 355.067C64.2499 371.571 84.6096 388.068 104.977 404.572C112.271 400.697 119.573 396.822 126.867 392.947C144.268 405.795 161.669 418.651 179.07 431.5C198.818 401.62 218.56 371.74 238.309 341.852C291.703 314.279 345.098 286.706 398.5 259.134V47.2543C377.389 32.0029 356.272 16.7514 335.161 1.5ZM131.519 369.454L125.579 378.266H124.748C124.541 374.67 124.328 371.073 124.122 367.476C123.563 357.792 123.003 348.115 122.444 338.438C121.995 330.739 121.553 323.033 121.104 315.334C121.008 315.356 120.913 315.356 120.824 315.4L86.2584 332.549L63.3519 343.91L53.886 348.606V152.791L330.605 15.5135V211.328L191.62 280.275C176.074 303.342 160.535 326.403 144.99 349.47C140.5 356.129 136.009 362.795 131.519 369.454Z" fill="#AE7AFF"/>
<path d="M86.5676 223.598V181.888L71.1543 189.506V170.123L124.284 143.869V163.252L108.826 170.885V212.596L86.5603 223.598H86.5676Z" fill="#AE7AFF"/>
<path d="M86.5676 223.598V181.888L71.1543 189.506V170.123L124.284 143.869V163.252L108.826 170.885V212.596L86.5603 223.598H86.5676Z" fill="white" fill-opacity="0.8"/>
<path d="M132.248 201.021V139.92L154.514 128.918V190.019L132.248 201.021Z" fill="#AE7AFF"/>
<path d="M132.248 201.021V139.92L154.514 128.918V190.019L132.248 201.021Z" fill="white" fill-opacity="0.8"/>
<path d="M204.383 165.376C201.675 160.805 199.437 157.531 197.685 155.546C195.933 153.56 194.233 152.366 192.591 151.971C190.95 151.575 188.948 151.876 186.578 152.879V174.181L164.312 185.184V124.083L186.578 113.08V133.364C188.72 132.112 190.53 130.515 192.017 128.588C193.504 126.662 194.998 123.973 196.515 120.53C198.024 117.087 199.937 112.018 202.249 105.337L226.738 93.2358C224.964 98.0852 223.411 102.187 222.071 105.535C220.731 108.883 219.37 111.96 217.986 114.758C216.602 117.556 215.314 119.864 214.129 121.666C212.944 123.475 211.597 125.153 210.08 126.713C208.564 128.266 207.04 129.584 205.502 130.661C203.964 131.738 202.124 132.844 199.982 133.987V139.012C202.433 137.913 204.56 137.108 206.363 136.587C208.159 136.067 209.919 135.826 211.626 135.862C213.341 135.899 214.865 136.221 216.205 136.837C217.544 137.452 218.957 138.485 220.444 139.942C221.931 141.4 223.374 143.144 224.787 145.187C226.2 147.231 227.805 149.81 229.601 152.923L204.383 165.384V165.376Z" fill="#AE7AFF"/>
<path d="M204.383 165.376C201.675 160.805 199.437 157.531 197.685 155.546C195.933 153.56 194.233 152.366 192.591 151.971C190.95 151.575 188.948 151.876 186.578 152.879V174.181L164.312 185.184V124.083L186.578 113.08V133.364C188.72 132.112 190.53 130.515 192.017 128.588C193.504 126.662 194.998 123.973 196.515 120.53C198.024 117.087 199.937 112.018 202.249 105.337L226.738 93.2358C224.964 98.0852 223.411 102.187 222.071 105.535C220.731 108.883 219.37 111.96 217.986 114.758C216.602 117.556 215.314 119.864 214.129 121.666C212.944 123.475 211.597 125.153 210.08 126.713C208.564 128.266 207.04 129.584 205.502 130.661C203.964 131.738 202.124 132.844 199.982 133.987V139.012C202.433 137.913 204.56 137.108 206.363 136.587C208.159 136.067 209.919 135.826 211.626 135.862C213.341 135.899 214.865 136.221 216.205 136.837C217.544 137.452 218.957 138.485 220.444 139.942C221.931 141.4 223.374 143.144 224.787 145.187C226.2 147.231 227.805 149.81 229.601 152.923L204.383 165.384V165.376Z" fill="white" fill-opacity="0.8"/>
<path d="M230.285 132.17V118.706L260.854 103.601V117.065L230.285 132.17Z" fill="#AE7AFF"/>
<path d="M230.285 132.17V118.706L260.854 103.601V117.065L230.285 132.17Z" fill="white" fill-opacity="0.8"/>
<path d="M86.5676 307.108V265.397L71.1543 273.016V253.633L124.284 227.378V246.761L108.826 254.394V296.105L86.5603 307.108H86.5676Z" fill="#AE7AFF"/>
<path d="M86.5676 307.108V265.397L71.1543 273.016V253.633L124.284 227.378V246.761L108.826 254.394V296.105L86.5603 307.108H86.5676Z" fill="white" fill-opacity="0.8"/>
<path d="M145.564 277.953L122.532 289.336L143.724 217.767L170.222 204.669L191.414 255.295L168.382 266.679L166.284 260.811L147.662 270.012L145.564 277.953ZM151.386 253.178L162.604 247.633C161.544 244.205 160.815 241.194 160.396 238.586C159.984 235.978 159.719 232.528 159.601 228.243L154.338 230.843C154.191 235.29 153.933 239.011 153.543 242.014C153.153 245.018 152.439 248.739 151.379 253.178H151.386Z" fill="#AE7AFF"/>
<path d="M145.564 277.953L122.532 289.336L143.724 217.767L170.222 204.669L191.414 255.295L168.382 266.679L166.284 260.811L147.662 270.012L145.564 277.953ZM151.386 253.178L162.604 247.633C161.544 244.205 160.815 241.194 160.396 238.586C159.984 235.978 159.719 232.528 159.601 228.243L154.338 230.843C154.191 235.29 153.933 239.011 153.543 242.014C153.153 245.018 152.439 248.739 151.379 253.178H151.386Z" fill="white" fill-opacity="0.8"/>
<path d="M197.663 252.211V191.11L219.929 180.108V221.818L241.032 211.387V230.77L197.663 252.197V252.211Z" fill="#AE7AFF"/>
<path d="M197.663 252.211V191.11L219.929 180.108V221.818L241.032 211.387V230.77L197.663 252.197V252.211Z" fill="white" fill-opacity="0.8"/>
<path d="M288.943 207.109C286.234 202.538 283.996 199.263 282.245 197.278C280.493 195.293 278.792 194.099 277.151 193.703C275.51 193.308 273.507 193.608 271.137 194.612V215.914L248.871 226.917V165.816L271.137 154.813V175.097C273.279 173.844 275.09 172.247 276.577 170.321C278.064 168.394 279.558 165.706 281.074 162.263C282.583 158.82 284.497 153.751 286.808 147.07L311.297 134.969C309.523 139.818 307.97 143.92 306.631 147.268C305.291 150.616 303.929 153.692 302.545 156.49C301.162 159.289 299.873 161.596 298.696 163.398C297.511 165.208 296.164 166.885 294.647 168.446C293.131 169.998 291.607 171.317 290.069 172.394C288.531 173.471 286.69 174.577 284.548 175.72V180.745C287 179.646 289.127 178.84 290.93 178.32C292.726 177.8 294.485 177.558 296.193 177.595C297.908 177.632 299.432 177.954 300.771 178.569C302.111 179.185 303.524 180.217 305.011 181.675C306.498 183.133 307.941 184.876 309.354 186.92C310.767 188.964 312.372 191.542 314.168 194.656L288.95 207.116L288.943 207.109Z" fill="#AE7AFF"/>
<path d="M288.943 207.109C286.234 202.538 283.996 199.263 282.245 197.278C280.493 195.293 278.792 194.099 277.151 193.703C275.51 193.308 273.507 193.608 271.137 194.612V215.914L248.871 226.917V165.816L271.137 154.813V175.097C273.279 173.844 275.09 172.247 276.577 170.321C278.064 168.394 279.558 165.706 281.074 162.263C282.583 158.82 284.497 153.751 286.808 147.07L311.297 134.969C309.523 139.818 307.97 143.92 306.631 147.268C305.291 150.616 303.929 153.692 302.545 156.49C301.162 159.289 299.873 161.596 298.696 163.398C297.511 165.208 296.164 166.885 294.647 168.446C293.131 169.998 291.607 171.317 290.069 172.394C288.531 173.471 286.69 174.577 284.548 175.72V180.745C287 179.646 289.127 178.84 290.93 178.32C292.726 177.8 294.485 177.558 296.193 177.595C297.908 177.632 299.432 177.954 300.771 178.569C302.111 179.185 303.524 180.217 305.011 181.675C306.498 183.133 307.941 184.876 309.354 186.92C310.767 188.964 312.372 191.542 314.168 194.656L288.95 207.116L288.943 207.109Z" fill="white" fill-opacity="0.8"/>
<g clip-path="url(#clip1_5_16471)">
<mask id="mask0_5_16471" style="mask-type:luminance" maskUnits="userSpaceOnUse" x="53" y="9" width="63" height="63">
<path d="M115.5 9.4999L53.5 9.67432L53.6744 71.6741L115.674 71.4997L115.5 9.4999Z" fill="white"/>
</mask>
<g mask="url(#mask0_5_16471)">
<path d="M84.6743 71.5869C83.6942 42.2207 82.9584 41.4937 53.5872 40.6742C82.9533 39.6941 83.6805 38.9583 84.4999 9.58711C85.4799 38.9532 86.2158 39.6804 115.587 40.4998C86.2208 41.4845 85.4937 42.2067 84.6743 71.5869Z" fill="#AE7AFF"/>
</g>
</g>
</g>
<g clip-path="url(#clip2_5_16471)">
<mask id="mask1_5_16471" style="mask-type:luminance" maskUnits="userSpaceOnUse" x="299" y="343" width="79" height="79">
<path d="M377.5 343.5L299.5 343.719L299.719 421.719L377.719 421.5L377.5 343.5Z" fill="white"/>
</mask>
<g mask="url(#mask1_5_16471)">
<path d="M338.5 343.61C339.883 364.572 356.639 381.235 377.609 382.5C356.647 383.883 339.984 400.639 338.719 421.609C337.336 400.647 320.58 383.984 299.61 382.719C320.572 381.336 337.235 364.58 338.5 343.61Z" fill="#AE7AFF"/>
</g>
</g>
<defs>
<clipPath id="clip0_5_16471">
<rect width="355" height="430" fill="white" transform="translate(43.5 1.5)"/>
</clipPath>
<clipPath id="clip1_5_16471">
<rect width="62" height="62" fill="white" transform="translate(53.5 9.67432) rotate(-0.161186)"/>
</clipPath>
<clipPath id="clip2_5_16471">
<rect width="78" height="78" fill="white" transform="translate(299.5 343.719) rotate(-0.161186)"/>
</clipPath>
</defs>
</svg>
