<svg width="16" height="16" viewBox="0 0 16 16" fill="none" xmlns="http://www.w3.org/2000/svg">
<path d="M10.3125 13.6562L8 11.3438L8.9375 10.4062L10.3125 11.7812L13.7188 8.34375L14.6562 9.28125L10.3125 13.6562ZM9.21875 7.21875C8.69792 7.73958 8.07292 8 7.34375 8C6.61458 8 5.97917 7.73958 5.4375 7.21875C4.91667 6.69792 4.65625 6.07292 4.65625 5.34375C4.65625 4.61458 4.91667 3.98958 5.4375 3.46875C5.97917 2.92708 6.61458 2.65625 7.34375 2.65625C8.07292 2.65625 8.69792 2.92708 9.21875 3.46875C9.73958 3.98958 10 4.61458 10 5.34375C10 6.07292 9.73958 6.69792 9.21875 7.21875ZM6 11.3438L8 13.3438H2V12C2 11.2083 2.60417 10.5729 3.8125 10.0938C5.04167 9.59375 6.21875 9.34375 7.34375 9.34375C7.65625 9.34375 7.875 9.35417 8 9.375L6 11.3438Z" fill="#AE7AFF"/>
</svg>
