<svg width="16" height="16" viewBox="0 0 16 16" fill="none" xmlns="http://www.w3.org/2000/svg" id='chat'>
<path d="M12 5.34375V4H4V5.34375H12ZM9.34375 9.34375V8H4V9.34375H9.34375ZM4 6V7.34375H12V6H4ZM13.3438 1.34375C13.6979 1.34375 14 1.47917 14.25 1.75C14.5208 2 14.6562 2.30208 14.6562 2.65625V10.6562C14.6562 11.0104 14.5208 11.3229 14.25 11.5938C14 11.8646 13.6979 12 13.3438 12H4L1.34375 14.6562V2.65625C1.34375 2.30208 1.46875 2 1.71875 1.75C1.98958 1.47917 2.30208 1.34375 2.65625 1.34375H13.3438Z" fill="currentColor"/>
</svg>
