<svg width="61" height="74" viewBox="0 0 61 74" fill="none" xmlns="http://www.w3.org/2000/svg">
<path d="M50.1164 0C33.4109 8.25094 16.7055 16.5031 0 24.7553C0.0050592 26.2971 0.00885359 27.8401 0.0139128 29.3819C0.00885359 29.3844 0.0050592 29.3869 0 29.3895C0.0050592 31.104 0.0101184 32.8184 0.0164424 34.5329C0.0113832 34.5354 0.0050592 34.538 0 34.5405C0.0050592 36.0822 0.00885359 37.6253 0.0139128 39.1671C0.00885359 39.1696 0.0050592 39.1721 0 39.1746C0.0215016 46.3981 0.044268 53.6229 0.0670344 60.8464C3.56547 63.6866 7.0639 66.5256 10.5636 69.3659C11.817 68.699 13.0717 68.0321 14.3251 67.3652C17.3151 69.5764 20.3051 71.7888 23.2951 74C26.6885 68.8578 30.0807 63.7156 33.4742 58.5722C42.649 53.8271 51.8239 49.082 61 44.337V7.874C57.3726 5.24934 53.7438 2.62467 50.1164 0ZM15.1245 63.3223L14.1038 64.8389H13.9609C13.9254 64.2199 13.8888 63.6009 13.8533 62.9819C13.7572 61.3154 13.6611 59.65 13.565 57.9847C13.4878 56.6598 13.4119 55.3336 13.3348 54.0087C13.3183 54.0124 13.3019 54.0124 13.2867 54.02L7.34722 56.9712L3.41116 58.9264L1.78463 59.7345V26.0361L49.3335 2.41162V36.11L25.4516 47.9752C22.7803 51.945 20.1103 55.9135 17.4391 59.8833C16.6675 61.0292 15.896 62.1764 15.1245 63.3223Z" fill="#AE7AFF"/>
<path d="M7.40044 38.2216V31.0435L4.75195 32.3546V29.0189L13.8813 24.5007V27.8364L11.2252 29.15V36.3281L7.39918 38.2216H7.40044Z" fill="#AE7AFF"/>
<path d="M7.40044 38.2216V31.0435L4.75195 32.3546V29.0189L13.8813 24.5007V27.8364L11.2252 29.15V36.3281L7.39918 38.2216H7.40044Z" fill="white" fill-opacity="0.8"/>
<path d="M15.25 34.3363V23.8212L19.076 21.9277V32.4428L15.25 34.3363Z" fill="#AE7AFF"/>
<path d="M15.25 34.3363V23.8212L19.076 21.9277V32.4428L15.25 34.3363Z" fill="white" fill-opacity="0.8"/>
<path d="M27.6444 28.202C27.1789 27.4153 26.7944 26.8518 26.4934 26.5102C26.1924 26.1685 25.9002 25.9631 25.6181 25.895C25.3361 25.8269 24.9921 25.8786 24.5848 26.0513V29.7173L20.7588 31.6108V21.0957L24.5848 19.2022V22.6929C24.9529 22.4774 25.264 22.2025 25.5195 21.871C25.775 21.5394 26.0317 21.0768 26.2923 20.4843C26.5516 19.8918 26.8804 19.0194 27.2776 17.8697L31.4855 15.7871C31.1807 16.6217 30.9139 17.3276 30.6837 17.9037C30.4535 18.4799 30.2195 19.0093 29.9817 19.4909C29.7439 19.9725 29.5226 20.3696 29.3189 20.6797C29.1153 20.9911 28.8839 21.2797 28.6233 21.5483C28.3628 21.8155 28.1009 22.0424 27.8366 22.2278C27.5723 22.4131 27.2561 22.6034 26.888 22.8001V23.6649C27.3092 23.4758 27.6747 23.3371 27.9846 23.2476C28.2932 23.1581 28.5955 23.1165 28.8889 23.1228C29.1836 23.1291 29.4454 23.1846 29.6756 23.2905C29.9058 23.3964 30.1487 23.5741 30.4041 23.825C30.6596 24.0759 30.9075 24.3759 31.1504 24.7276C31.3932 25.0793 31.6689 25.5231 31.9776 26.0589L27.6444 28.2032V28.202Z" fill="#AE7AFF"/>
<path d="M27.6444 28.202C27.1789 27.4153 26.7944 26.8518 26.4934 26.5102C26.1924 26.1685 25.9002 25.9631 25.6181 25.895C25.3361 25.8269 24.9921 25.8786 24.5848 26.0513V29.7173L20.7588 31.6108V21.0957L24.5848 19.2022V22.6929C24.9529 22.4774 25.264 22.2025 25.5195 21.871C25.775 21.5394 26.0317 21.0768 26.2923 20.4843C26.5516 19.8918 26.8804 19.0194 27.2776 17.8697L31.4855 15.7871C31.1807 16.6217 30.9139 17.3276 30.6837 17.9037C30.4535 18.4799 30.2195 19.0093 29.9817 19.4909C29.7439 19.9725 29.5226 20.3696 29.3189 20.6797C29.1153 20.9911 28.8839 21.2797 28.6233 21.5483C28.3628 21.8155 28.1009 22.0424 27.8366 22.2278C27.5723 22.4131 27.2561 22.6034 26.888 22.8001V23.6649C27.3092 23.4758 27.6747 23.3371 27.9846 23.2476C28.2932 23.1581 28.5955 23.1165 28.8889 23.1228C29.1836 23.1291 29.4454 23.1846 29.6756 23.2905C29.9058 23.3964 30.1487 23.5741 30.4041 23.825C30.6596 24.0759 30.9075 24.3759 31.1504 24.7276C31.3932 25.0793 31.6689 25.5231 31.9776 26.0589L27.6444 28.2032V28.202Z" fill="white" fill-opacity="0.8"/>
<path d="M32.0957 22.4876V20.1705L37.3484 17.571V19.8881L32.0957 22.4876Z" fill="#AE7AFF"/>
<path d="M32.0957 22.4876V20.1705L37.3484 17.571V19.8881L32.0957 22.4876Z" fill="white" fill-opacity="0.8"/>
<path d="M7.40044 52.593V45.4148L4.75195 46.7259V43.3902L13.8813 38.8721V42.2077L11.2252 43.5213V50.6995L7.39918 52.593H7.40044Z" fill="#AE7AFF"/>
<path d="M7.40044 52.593V45.4148L4.75195 46.7259V43.3902L13.8813 38.8721V42.2077L11.2252 43.5213V50.6995L7.39918 52.593H7.40044Z" fill="white" fill-opacity="0.8"/>
<path d="M17.5376 47.5756L13.5801 49.5347L17.2214 37.2181L21.7747 34.9641L25.4161 43.6764L21.4585 45.6355L21.098 44.6257L17.8981 46.2091L17.5376 47.5756ZM18.5381 43.3121L20.4656 42.3578C20.2835 41.7678 20.1583 41.2497 20.0862 40.8009C20.0154 40.3521 19.9698 39.7584 19.9496 39.0209L19.0453 39.4684C19.02 40.2336 18.9757 40.874 18.9087 41.3909C18.8416 41.9078 18.719 42.5482 18.5368 43.3121H18.5381Z" fill="#AE7AFF"/>
<path d="M17.5376 47.5756L13.5801 49.5347L17.2214 37.2181L21.7747 34.9641L25.4161 43.6764L21.4585 45.6355L21.098 44.6257L17.8981 46.2091L17.5376 47.5756ZM18.5381 43.3121L20.4656 42.3578C20.2835 41.7678 20.1583 41.2497 20.0862 40.8009C20.0154 40.3521 19.9698 39.7584 19.9496 39.0209L19.0453 39.4684C19.02 40.2336 18.9757 40.874 18.9087 41.3909C18.8416 41.9078 18.719 42.5482 18.5368 43.3121H18.5381Z" fill="white" fill-opacity="0.8"/>
<path d="M26.4902 43.1456V32.6306L30.3163 30.7371V37.9152L33.9424 36.12V39.4557L26.4902 43.1431V43.1456Z" fill="#AE7AFF"/>
<path d="M26.4902 43.1456V32.6306L30.3163 30.7371V37.9152L33.9424 36.12V39.4557L26.4902 43.1431V43.1456Z" fill="white" fill-opacity="0.8"/>
<path d="M42.1746 35.3838C41.7092 34.5972 41.3247 34.0337 41.0237 33.6921C40.7226 33.3504 40.4305 33.1449 40.1484 33.0769C39.8664 33.0088 39.5223 33.0605 39.1151 33.2332V36.8991L35.2891 38.7926V28.2776L39.1151 26.3841V29.8748C39.4831 29.6592 39.7943 29.3844 40.0498 29.0529C40.3053 28.7213 40.562 28.2587 40.8226 27.6662C41.0818 27.0737 41.4107 26.2013 41.8078 25.0516L46.0158 22.969C45.711 23.8035 45.4441 24.5095 45.2139 25.0856C44.9837 25.6617 44.7498 26.1912 44.512 26.6728C44.2742 27.1543 44.0529 27.5514 43.8505 27.8616C43.6469 28.1729 43.4154 28.4616 43.1548 28.7302C42.8943 28.9974 42.6325 29.2243 42.3681 29.4096C42.1038 29.595 41.7876 29.7853 41.4195 29.982V30.8468C41.8407 30.6577 42.2062 30.519 42.5161 30.4295C42.8247 30.34 43.127 30.2984 43.4205 30.3047C43.7151 30.311 43.977 30.3665 44.2072 30.4724C44.4374 30.5783 44.6802 30.756 44.9357 31.0069C45.1912 31.2578 45.4391 31.5578 45.6819 31.9095C45.9248 32.2612 46.2005 32.705 46.5091 33.2407L42.1759 35.3851L42.1746 35.3838Z" fill="#AE7AFF"/>
<path d="M42.1746 35.3838C41.7092 34.5972 41.3247 34.0337 41.0237 33.6921C40.7226 33.3504 40.4305 33.1449 40.1484 33.0769C39.8664 33.0088 39.5223 33.0605 39.1151 33.2332V36.8991L35.2891 38.7926V28.2776L39.1151 26.3841V29.8748C39.4831 29.6592 39.7943 29.3844 40.0498 29.0529C40.3053 28.7213 40.562 28.2587 40.8226 27.6662C41.0818 27.0737 41.4107 26.2013 41.8078 25.0516L46.0158 22.969C45.711 23.8035 45.4441 24.5095 45.2139 25.0856C44.9837 25.6617 44.7498 26.1912 44.512 26.6728C44.2742 27.1543 44.0529 27.5514 43.8505 27.8616C43.6469 28.1729 43.4154 28.4616 43.1548 28.7302C42.8943 28.9974 42.6325 29.2243 42.3681 29.4096C42.1038 29.595 41.7876 29.7853 41.4195 29.982V30.8468C41.8407 30.6577 42.2062 30.519 42.5161 30.4295C42.8247 30.34 43.127 30.2984 43.4205 30.3047C43.7151 30.311 43.977 30.3665 44.2072 30.4724C44.4374 30.5783 44.6802 30.756 44.9357 31.0069C45.1912 31.2578 45.4391 31.5578 45.6819 31.9095C45.9248 32.2612 46.2005 32.705 46.5091 33.2407L42.1759 35.3851L42.1746 35.3838Z" fill="white" fill-opacity="0.8"/>
</svg>
