<svg width="12" height="12" viewBox="0 0 12 12" fill="none" xmlns="http://www.w3.org/2000/svg" id='search'>
<path d="M2.21875 6.46875C2.80208 7.05208 3.51042 7.34375 4.34375 7.34375C5.17708 7.34375 5.88542 7.05208 6.46875 6.46875C7.05208 5.88542 7.34375 5.17708 7.34375 4.34375C7.34375 3.51042 7.05208 2.80208 6.46875 2.21875C5.88542 1.63542 5.17708 1.34375 4.34375 1.34375C3.51042 1.34375 2.80208 1.63542 2.21875 2.21875C1.63542 2.80208 1.34375 3.51042 1.34375 4.34375C1.34375 5.17708 1.63542 5.88542 2.21875 6.46875ZM8.34375 7.34375L11.6562 10.6562L10.6562 11.6562L7.34375 8.34375V7.8125L7.15625 7.625C6.36458 8.3125 5.42708 8.65625 4.34375 8.65625C3.13542 8.65625 2.10417 8.23958 1.25 7.40625C0.416667 6.57292 0 5.55208 0 4.34375C0 3.13542 0.416667 2.11458 1.25 1.28125C2.10417 0.427083 3.13542 0 4.34375 0C5.55208 0 6.57292 0.427083 7.40625 1.28125C8.23958 2.11458 8.65625 3.13542 8.65625 4.34375C8.65625 4.78125 8.55208 5.28125 8.34375 5.84375C8.13542 6.38542 7.89583 6.82292 7.625 7.15625L7.8125 7.34375H8.34375Z" fill="currentColor"/>
</svg>
