<svg width="14" height="14" viewBox="0 0 14 14" fill="none" xmlns="http://www.w3.org/2000/svg" id='settings'>
<g clip-path="url(#clip0_5724_791)">
<path d="M5.34342 8.65625C5.80175 9.11458 6.35384 9.34375 6.99967 9.34375C7.6455 9.34375 8.19759 9.11458 8.65592 8.65625C9.11425 8.19792 9.34342 7.64583 9.34342 7C9.34342 6.35417 9.11425 5.80208 8.65592 5.34375C8.19759 4.88542 7.6455 4.65625 6.99967 4.65625C6.35384 4.65625 5.80175 4.88542 5.34342 5.34375C4.88509 5.80208 4.65592 6.35417 4.65592 7C4.65592 7.64583 4.88509 8.19792 5.34342 8.65625ZM11.9685 7.65625L13.3747 8.75C13.5205 8.85417 13.5414 9 13.4372 9.1875L12.0935 11.5C12.0101 11.6458 11.8747 11.6875 11.6872 11.625L10.0309 10.9688C9.59342 11.2812 9.21842 11.5 8.90592 11.625L8.65592 13.375C8.61425 13.5625 8.51009 13.6562 8.34342 13.6562H5.65592C5.48925 13.6562 5.38509 13.5625 5.34342 13.375L5.09342 11.625C4.69759 11.4583 4.32259 11.2396 3.96842 10.9688L2.31217 11.625C2.12467 11.6875 1.98925 11.6458 1.90592 11.5L0.562175 9.1875C0.458008 9 0.478842 8.85417 0.624675 8.75L2.03092 7.65625C2.01009 7.51042 1.99967 7.29167 1.99967 7C1.99967 6.70833 2.01009 6.48958 2.03092 6.34375L0.624675 5.25C0.478842 5.14583 0.458008 5 0.562175 4.8125L1.90592 2.5C1.98925 2.35417 2.12467 2.3125 2.31217 2.375L3.96842 3.03125C4.40592 2.71875 4.78092 2.5 5.09342 2.375L5.34342 0.625C5.38509 0.4375 5.48925 0.34375 5.65592 0.34375H8.34342C8.51009 0.34375 8.61425 0.4375 8.65592 0.625L8.90592 2.375C9.30175 2.54167 9.67675 2.76042 10.0309 3.03125L11.6872 2.375C11.8747 2.3125 12.0101 2.35417 12.0935 2.5L13.4372 4.8125C13.5414 5 13.5205 5.14583 13.3747 5.25L11.9685 6.34375C11.9893 6.48958 11.9997 6.70833 11.9997 7C11.9997 7.29167 11.9893 7.51042 11.9685 7.65625Z" fill="#AE7AFF"/>
</g>
<defs>
<clipPath id="clip0_5724_791">
<rect width="14" height="14" fill="white"/>
</clipPath>
</defs>
</svg>
